<mxfile host="app.diagrams.net" modified="2024-06-12T09:31:28.744Z" agent="Mozilla/5.0 (Windows NT 10.0; Win64; x64) AppleWebKit/537.36 (KHTML, like Gecko) Chrome/125.0.0.0 Safari/537.36" version="24.4.14" etag="xr8RBqvHdXmgIJIIRI2M" type="github">
  <diagram name="Page-1" id="Rc10EC2wQTx292LDgb-0">
    <mxGraphModel>
      <root>
        <mxCell id="0" />
        <mxCell id="1" parent="0" />
      </root>
    </mxGraphModel>
  </diagram>
</mxfile>
